<svg width="512" height="512" viewBox="0 0 512 512" fill="none" xmlns="http://www.w3.org/2000/svg">
  <defs>
    <!-- 1. 背景的高级渐变：基于你的 Primary Blue，加入一点青色提亮，一点紫色加深 -->
    <linearGradient id="bg_gradient" x1="0" y1="0" x2="512" y2="512" gradientUnits="userSpaceOnUse">
      <stop offset="0%" stop-color="#3B82F6" /> <!-- 亮蓝 (比原色亮一点) -->
      <stop offset="50%" stop-color="#1E4BFF" /> <!-- 你的原色 Primary -->
      <stop offset="100%" stop-color="#102A99" /> <!-- 深蓝 (增加厚重感) -->
    </linearGradient>

    <!-- 2. AI星星的渐变：融合你的 Secondary(橙) 和 Accent(粉) -->
    <linearGradient id="star_gradient" x1="280" y1="80" x2="420" y2="220" gradientUnits="userSpaceOnUse">
      <stop offset="0%" stop-color="#FFB74D" /> <!-- 亮橙 -->
      <stop offset="40%" stop-color="#FFFF8746" /> <!-- 你的 Secondary -->
      <stop offset="100%" stop-color="#FF4667" /> <!-- 你的 Accent -->
    </linearGradient>

    <!-- 3. 柔和投影滤镜 -->
    <filter id="soft_shadow" x="-20%" y="-20%" width="140%" height="140%">
      <feGaussianBlur in="SourceAlpha" stdDeviation="8"/>
      <feOffset dx="0" dy="8" result="offsetblur"/>
      <feComponentTransfer>
        <feFuncA type="linear" slope="0.3"/> <!-- 投影透明度 -->
      </feComponentTransfer>
      <feMerge>
        <feMergeNode/>
        <feMergeNode in="SourceGraphic"/>
      </feMerge>
    </filter>
    
    <!-- 4. 顶部高光滤镜 (模拟玻璃质感) -->
    <linearGradient id="glass_highlight" x1="0" y1="0" x2="0" y2="512" gradientUnits="userSpaceOnUse">
      <stop offset="0%" stop-color="white" stop-opacity="0.2"/>
      <stop offset="100%" stop-color="white" stop-opacity="0"/>
    </linearGradient>
  </defs>

  <!-- 背景容器 -->
  <rect x="0" y="0" width="512" height="512" rx="115" fill="url(#bg_gradient)"/>
  
  <!-- 顶部微妙的高光层，增加立体感 -->
  <rect x="0" y="0" width="512" height="512" rx="115" fill="url(#glass_highlight)"/>

  <!-- 核心图形：对勾 (带投影) -->
  <!-- 线条稍微改圆润了一点 -->
  <g filter="url(#soft_shadow)">
      <path d="M146 265 L226 345 L346 185" stroke="white" stroke-width="56" stroke-linecap="round" stroke-linejoin="round"/>
  </g>
  
  <!-- AI 元素：现代风格四角星 (Sparkles) -->
  <!-- 这种四角星形状目前在UI界主要代表 "AI" 或 "Magic"，形状比普通五角星更现代 -->
  
  <!-- 主星 (右上) -->
  <g filter="url(#soft_shadow)">
    <path d="M390 90 
             C 390 90, 385 130, 355 145 
             C 385 160, 390 200, 390 200 
             C 390 200, 395 160, 425 145 
             C 395 130, 390 90, 390 90 Z" 
          fill="url(#star_gradient)"/>
  </g>
  
  <!-- 次星 (左侧小星，增加平衡感) -->
  <g opacity="0.8">
    <path d="M300 110 
             C 300 110, 297 125, 285 130 
             C 297 135, 300 150, 300 150 
             C 300 150, 303 135, 315 130 
             C 303 125, 300 110, 300 110 Z" 
          fill="white"/>
  </g>
</svg>