<svg width="820" height="520" viewBox="0 0 820 520" fill="none" xmlns="http://www.w3.org/2000/svg">
  <rect width="820" height="520" rx="40" fill="url(#paint0_linear)" />
  <g filter="url(#filter0_d)">
    <rect x="170" y="120" width="480" height="280" rx="28" fill="white" fill-opacity="0.92" />
  </g>
  <rect x="210" y="162" width="160" height="160" rx="24" fill="#E7ECFF" />
  <rect x="210" y="329" width="160" height="32" rx="16" fill="#2563EB" fill-opacity="0.25" />
  <rect x="430" y="180" width="180" height="16" rx="8" fill="#B8C9FF" />
  <rect x="430" y="212" width="220" height="16" rx="8" fill="#DFE6FF" />
  <rect x="430" y="244" width="200" height="16" rx="8" fill="#DFE6FF" />
  <rect x="430" y="276" width="140" height="16" rx="8" fill="#DFE6FF" />
  <rect x="430" y="312" width="96" height="16" rx="8" fill="#DFE6FF" />
  <g filter="url(#filter1_d)">
    <path d="M290 208C314.301 208 334 188.301 334 164V148C334 143.582 330.418 140 326 140H254C249.582 140 246 143.582 246 148V164C246 188.301 265.699 208 290 208Z" fill="url(#paint1_linear)" />
    <path d="M274 168C274 159.163 281.163 152 290 152C298.837 152 306 159.163 306 168V176C306 184.837 298.837 192 290 192C281.163 192 274 184.837 274 176V168Z" stroke="white" stroke-width="8" stroke-linecap="round" />
    <path d="M298 172V176C298 180.418 294.418 184 290 184C285.582 184 282 180.418 282 176V172" stroke="white" stroke-width="6" stroke-linecap="round" />
  </g>
  <g filter="url(#filter2_d)">
    <path d="M398 384C398 367.431 411.431 354 428 354H536C552.569 354 566 367.431 566 384C566 400.569 552.569 414 536 414H470L452 432L434 414H428C411.431 414 398 400.569 398 384Z" fill="#1D4ED8" />
    <path d="M463.5 382.5H521" stroke="white" stroke-width="10" stroke-linecap="round" />
    <circle cx="440" cy="384" r="8" fill="white" />
    <circle cx="546" cy="384" r="8" fill="white" />
  </g>
  <defs>
    <filter id="filter0_d" x="110" y="80" width="600" height="400" filterUnits="userSpaceOnUse" color-interpolation-filters="sRGB">
      <feFlood flood-opacity="0" result="BackgroundImageFix" />
      <feColorMatrix in="SourceAlpha" type="matrix" values="0 0 0 0 0 0 0 0 0 0 0 0 0 0 0 0 0 0 127 0" result="hardAlpha" />
      <feOffset dy="16" />
      <feGaussianBlur stdDeviation="30" />
      <feColorMatrix type="matrix" values="0 0 0 0 0.043 0 0 0 0 0.102 0 0 0 0 0.265 0 0 0 0.18 0" />
      <feBlend mode="normal" in2="BackgroundImageFix" result="effect1_dropShadow" />
      <feBlend mode="normal" in="SourceGraphic" in2="effect1_dropShadow" result="shape" />
    </filter>
    <filter id="filter1_d" x="226" y="130" width="128" height="118" filterUnits="userSpaceOnUse" color-interpolation-filters="sRGB">
      <feFlood flood-opacity="0" result="BackgroundImageFix" />
      <feColorMatrix in="SourceAlpha" type="matrix" values="0 0 0 0 0 0 0 0 0 0 0 0 0 0 0 0 0 0 127 0" result="hardAlpha" />
      <feOffset dy="6" />
      <feGaussianBlur stdDeviation="10" />
      <feColorMatrix type="matrix" values="0 0 0 0 0.129 0 0 0 0 0.239 0 0 0 0 0.573 0 0 0 0.35 0" />
      <feBlend mode="normal" in2="BackgroundImageFix" result="effect1_dropShadow" />
      <feBlend mode="normal" in="SourceGraphic" in2="effect1_dropShadow" result="shape" />
    </filter>
    <filter id="filter2_d" x="368" y="334" width="228" height="138" filterUnits="userSpaceOnUse" color-interpolation-filters="sRGB">
      <feFlood flood-opacity="0" result="BackgroundImageFix" />
      <feColorMatrix in="SourceAlpha" type="matrix" values="0 0 0 0 0 0 0 0 0 0 0 0 0 0 0 0 0 0 127 0" result="hardAlpha" />
      <feOffset dy="12" />
      <feGaussianBlur stdDeviation="12" />
      <feColorMatrix type="matrix" values="0 0 0 0 0.086 0 0 0 0 0.169 0 0 0 0 0.427 0 0 0 0.3 0" />
      <feBlend mode="normal" in2="BackgroundImageFix" result="effect1_dropShadow" />
      <feBlend mode="normal" in="SourceGraphic" in2="effect1_dropShadow" result="shape" />
    </filter>
    <linearGradient id="paint0_linear" x1="74" y1="34" x2="646" y2="520" gradientUnits="userSpaceOnUse">
      <stop stop-color="#EEF2FF" />
      <stop offset="1" stop-color="#D2DCFF" />
    </linearGradient>
    <linearGradient id="paint1_linear" x1="246" y1="140" x2="334" y2="208" gradientUnits="userSpaceOnUse">
      <stop stop-color="#2563EB" />
      <stop offset="1" stop-color="#1D4ED8" />
    </linearGradient>
  </defs>
</svg>
