<svg width="512" height="512" viewBox="0 0 512 512" fill="none" xmlns="http://www.w3.org/2000/svg">
  <defs>
    <linearGradient id="bgGradient" x1="92" y1="60" x2="420" y2="452" gradientUnits="userSpaceOnUse">
      <stop offset="0" stop-color="#3B82F6" />
      <stop offset="1" stop-color="#1D4ED8" />
    </linearGradient>
    <linearGradient id="sparkGradient" x1="328" y1="144" x2="388" y2="228" gradientUnits="userSpaceOnUse">
      <stop offset="0" stop-color="#FB923C" />
      <stop offset="1" stop-color="#F97316" />
    </linearGradient>
  </defs>
  <rect width="512" height="512" rx="104" fill="url(#bgGradient)" />
  <path d="M220 266L260 306L344 222" stroke="white" stroke-width="32" stroke-linecap="round" stroke-linejoin="round" />
  <path d="M338 196C345.732 196 352 202.268 352 210V304C352 318.359 340.359 330 326 330H196C181.641 330 170 318.359 170 304V208C170 193.641 181.641 182 196 182H326C327.126 182 328.24 182.093 329.332 182.273" stroke="white" stroke-width="12" stroke-linecap="round" stroke-linejoin="round" opacity="0.18" />
  <path d="M370.5 180C362.7 168 350 160 336 160H196C169.49 160 148 181.49 148 208V304C148 330.51 169.49 352 196 352H316C342.51 352 364 330.51 364 304V264C364 252 368.7 240.6 376.8 232.5L378 231.2C394.6 214.8 392.2 188.7 370.5 180Z" fill="white" fill-opacity="0.08" />
  <path d="M376 214C402.51 214 424 192.51 424 166C424 139.49 402.51 118 376 118C349.49 118 328 139.49 328 166C328 192.51 349.49 214 376 214Z" fill="url(#sparkGradient)" />
  <path d="M376 142V166C376 166.552 376.448 167 377 167H401" stroke="white" stroke-width="10" stroke-linecap="round" />
  <circle cx="304" cy="134" r="10" fill="#93C5FD" />
  <circle cx="302" cy="376" r="9" fill="#60A5FA" opacity="0.8" />
  <circle cx="188" cy="148" r="12" fill="#60A5FA" opacity="0.65" />
  <path d="M192 140L240 192" stroke="#EFF6FF" stroke-width="6" stroke-linecap="round" opacity="0.5" />
  <path d="M300 134L344 184" stroke="#EFF6FF" stroke-width="6" stroke-linecap="round" opacity="0.5" />
</svg>
